# xmcd CD database file
#
# Track frame offsets:
#	150
#	16972
#	40586
#	69319
#	91277
#	114027
#	124132
#	142964
#	161555
#	181438
#	201019
#	219648
#	242415
#
# Disc length: 3420 seconds
#
# Revision: 0
# Processed by: cddbd v1.5.2PL0 Copyright (c) Steve Scherf et al.
# Submitted via: CDex 1.71
#
DISCID=a40d5a0d
DTITLE=Marc Thomas - Shining Hours
DYEAR=2011
DGENRE=Jazz
TTITLE0=Shining hours
TTITLE1=I'm through with love
TTITLE2=Our love is here to stay
TTITLE3=Maybe september
TTITLE4=A house is not a home
TTITLE5=Oh me, oh my, oh gosh
TTITLE6=Triste
TTITLE7=People - Moon river
TTITLE8=Just one of those things
TTITLE9=I'll be seeing you
TTITLE10=Sugar
TTITLE11=I'm trough with love (bonus track)
TTITLE12=You'd be so nice tocome home to
EXTD=YEAR: 2011
EXTT0=
EXTT1=
EXTT2=
EXTT3=
EXTT4=
EXTT5=
EXTT6=
EXTT7=
EXTT8=
EXTT9=
EXTT10=
EXTT11=
EXTT12=
PLAYORDER=
